<?xml version="1.0" encoding="UTF-8"?>
<svg xmlns="http://www.w3.org/2000/svg" xmlns:xlink="http://www.w3.org/1999/xlink" width="483pt" height="483pt" viewBox="0 0 483 483" version="1.1">
<g id="surface197313">
<rect x="0" y="0" width="483" height="483" style="fill:rgb(100%,100%,100%);fill-opacity:1;stroke:none;"/>
<path style="fill-rule:evenodd;fill:rgb(100%,100%,100%);fill-opacity:1;stroke-width:0.1;stroke-linecap:butt;stroke-linejoin:miter;stroke:rgb(0%,0%,0%);stroke-opacity:1;stroke-miterlimit:10;" d="M -5 -0.0000846489 L 0.000000000000000888 -0.0000846489 L 0.000000000000000888 22.967298 L -5 22.967298 Z M -5 -0.0000846489 " transform="matrix(20,0,0,20,101,22.236068)"/>
<path style="fill-rule:evenodd;fill:rgb(34.117648%,88.235295%,34.117648%);fill-opacity:1;stroke-width:0.1;stroke-linecap:butt;stroke-linejoin:miter;stroke:rgb(0%,0%,0%);stroke-opacity:1;stroke-miterlimit:10;" d="M 0.000000000000000888 -0.0000846489 L 17 -0.0000846489 L 17 1.999915 L 0.000000000000000888 1.999915 Z M 0.000000000000000888 -0.0000846489 " transform="matrix(20,0,0,20,101,22.236068)"/>
<path style="fill-rule:evenodd;fill:rgb(34.117648%,88.235295%,34.117648%);fill-opacity:1;stroke-width:0.1;stroke-linecap:butt;stroke-linejoin:miter;stroke:rgb(0%,0%,0%);stroke-opacity:1;stroke-miterlimit:10;" d="M 0.000000000000000888 1.999915 L 17 1.999915 L 17 3.999915 L 0.000000000000000888 3.999915 Z M 0.000000000000000888 1.999915 " transform="matrix(20,0,0,20,101,22.236068)"/>
<path style="fill-rule:evenodd;fill:rgb(34.117648%,88.235295%,34.117648%);fill-opacity:1;stroke-width:0.1;stroke-linecap:butt;stroke-linejoin:miter;stroke:rgb(0%,0%,0%);stroke-opacity:1;stroke-miterlimit:10;" d="M 0.000000000000000888 3.999915 L 17 3.999915 L 17 5.999915 L 0.000000000000000888 5.999915 Z M 0.000000000000000888 3.999915 " transform="matrix(20,0,0,20,101,22.236068)"/>
<path style="fill-rule:evenodd;fill:rgb(34.117648%,88.235295%,34.117648%);fill-opacity:1;stroke-width:0.1;stroke-linecap:butt;stroke-linejoin:miter;stroke:rgb(0%,0%,0%);stroke-opacity:1;stroke-miterlimit:10;" d="M 0.000000000000000888 5.999915 L 17 5.999915 L 17 7.999915 L 0.000000000000000888 7.999915 Z M 0.000000000000000888 5.999915 " transform="matrix(20,0,0,20,101,22.236068)"/>
<path style="fill-rule:evenodd;fill:rgb(100%,26.274511%,26.274511%);fill-opacity:1;stroke-width:0.1;stroke-linecap:butt;stroke-linejoin:miter;stroke:rgb(0%,0%,0%);stroke-opacity:1;stroke-miterlimit:10;" d="M 0.000000000000000888 14.999915 L 17 14.999915 L 17 16.999915 L 0.000000000000000888 16.999915 Z M 0.000000000000000888 14.999915 " transform="matrix(20,0,0,20,101,22.236068)"/>
<path style="fill-rule:evenodd;fill:rgb(100%,26.274511%,26.274511%);fill-opacity:1;stroke-width:0.1;stroke-linecap:butt;stroke-linejoin:miter;stroke:rgb(0%,0%,0%);stroke-opacity:1;stroke-miterlimit:10;" d="M 0.000000000000000888 16.999915 L 17 16.999915 L 17 18.999915 L 0.000000000000000888 18.999915 Z M 0.000000000000000888 16.999915 " transform="matrix(20,0,0,20,101,22.236068)"/>
<path style="fill-rule:evenodd;fill:rgb(100%,26.274511%,26.274511%);fill-opacity:1;stroke-width:0.1;stroke-linecap:butt;stroke-linejoin:miter;stroke:rgb(0%,0%,0%);stroke-opacity:1;stroke-miterlimit:10;" d="M 0.000000000000000888 18.999915 L 17 18.999915 L 17 20.999915 L 0.000000000000000888 20.999915 Z M 0.000000000000000888 18.999915 " transform="matrix(20,0,0,20,101,22.236068)"/>
<path style="fill-rule:evenodd;fill:rgb(100%,26.274511%,26.274511%);fill-opacity:1;stroke-width:0.1;stroke-linecap:butt;stroke-linejoin:miter;stroke:rgb(0%,0%,0%);stroke-opacity:1;stroke-miterlimit:10;" d="M 0.000000000000000888 20.999915 L 17 20.999915 L 17 22.999915 L 0.000000000000000888 22.999915 Z M 0.000000000000000888 20.999915 " transform="matrix(20,0,0,20,101,22.236068)"/>
<path style="fill-rule:evenodd;fill:rgb(11.764706%,56.470591%,100%);fill-opacity:1;stroke-width:0.1;stroke-linecap:butt;stroke-linejoin:miter;stroke:rgb(0%,0%,0%);stroke-opacity:1;stroke-miterlimit:10;" d="M 0.000000000000000888 7.999915 L 17 7.999915 L 17 14.999915 L 0.000000000000000888 14.999915 Z M 0.000000000000000888 7.999915 " transform="matrix(20,0,0,20,101,22.236068)"/>
<path style="fill-rule:evenodd;fill:rgb(0%,38.82353%,76.862746%);fill-opacity:1;stroke-width:0.1;stroke-linecap:butt;stroke-linejoin:miter;stroke:rgb(0%,0%,0%);stroke-opacity:1;stroke-miterlimit:10;" d="M 0.000000000000000888 11.999915 L 10 11.999915 L 10 14.999915 L 0.000000000000000888 14.999915 Z M 0.000000000000000888 11.999915 " transform="matrix(20,0,0,20,101,22.236068)"/>
<path style="fill:none;stroke-width:0.1;stroke-linecap:butt;stroke-linejoin:miter;stroke:rgb(0%,0%,0%);stroke-opacity:1;stroke-dasharray:0.1,0.1;stroke-miterlimit:10;" d="M 16 0.999915 L 19 0.999915 L 19 15.999915 L 16.486719 15.999915 " transform="matrix(20,0,0,20,101,22.236068)"/>
<path style="fill-rule:evenodd;fill:rgb(0%,0%,0%);fill-opacity:1;stroke-width:0.1;stroke-linecap:butt;stroke-linejoin:miter;stroke:rgb(0%,0%,0%);stroke-opacity:1;stroke-miterlimit:10;" d="M 16.111719 15.999915 L 16.611719 15.749915 L 16.486719 15.999915 L 16.611719 16.249915 Z M 16.111719 15.999915 " transform="matrix(20,0,0,20,101,22.236068)"/>
<path style="fill:none;stroke-width:0.1;stroke-linecap:butt;stroke-linejoin:miter;stroke:rgb(0%,0%,0%);stroke-opacity:1;stroke-dasharray:0.1,0.1;stroke-miterlimit:10;" d="M 16 2.999915 L 18.513281 2.999915 " transform="matrix(20,0,0,20,101,22.236068)"/>
<path style="fill-rule:evenodd;fill:rgb(0%,0%,0%);fill-opacity:1;stroke-width:0.1;stroke-linecap:butt;stroke-linejoin:miter;stroke:rgb(0%,0%,0%);stroke-opacity:1;stroke-miterlimit:10;" d="M 18.888281 2.999915 L 18.388281 3.249915 L 18.513281 2.999915 L 18.388281 2.749915 Z M 18.888281 2.999915 " transform="matrix(20,0,0,20,101,22.236068)"/>
<path style="fill:none;stroke-width:0.1;stroke-linecap:butt;stroke-linejoin:miter;stroke:rgb(0%,0%,0%);stroke-opacity:1;stroke-dasharray:0.1,0.1;stroke-miterlimit:10;" d="M 16 4.999915 L 18.513281 4.999915 " transform="matrix(20,0,0,20,101,22.236068)"/>
<path style="fill-rule:evenodd;fill:rgb(0%,0%,0%);fill-opacity:1;stroke-width:0.1;stroke-linecap:butt;stroke-linejoin:miter;stroke:rgb(0%,0%,0%);stroke-opacity:1;stroke-miterlimit:10;" d="M 18.888281 4.999915 L 18.388281 5.249915 L 18.513281 4.999915 L 18.388281 4.749915 Z M 18.888281 4.999915 " transform="matrix(20,0,0,20,101,22.236068)"/>
<path style="fill:none;stroke-width:0.1;stroke-linecap:butt;stroke-linejoin:miter;stroke:rgb(0%,0%,0%);stroke-opacity:1;stroke-dasharray:0.1,0.1;stroke-miterlimit:10;" d="M 16 6.999915 L 18.513281 6.999915 " transform="matrix(20,0,0,20,101,22.236068)"/>
<path style="fill-rule:evenodd;fill:rgb(0%,0%,0%);fill-opacity:1;stroke-width:0.1;stroke-linecap:butt;stroke-linejoin:miter;stroke:rgb(0%,0%,0%);stroke-opacity:1;stroke-miterlimit:10;" d="M 18.888281 6.999915 L 18.388281 7.249915 L 18.513281 6.999915 L 18.388281 6.749915 Z M 18.888281 6.999915 " transform="matrix(20,0,0,20,101,22.236068)"/>
<path style="fill:none;stroke-width:0.1;stroke-linecap:butt;stroke-linejoin:miter;stroke:rgb(0%,0%,0%);stroke-opacity:1;stroke-miterlimit:10;" d="M 16 15.999915 L 16 21.513197 " transform="matrix(20,0,0,20,101,22.236068)"/>
<path style="fill-rule:evenodd;fill:rgb(0%,0%,0%);fill-opacity:1;stroke-width:0.1;stroke-linecap:butt;stroke-linejoin:miter;stroke:rgb(0%,0%,0%);stroke-opacity:1;stroke-miterlimit:10;" d="M 16 21.888197 L 15.75 21.388197 L 16 21.513197 L 16.25 21.388197 Z M 16 21.888197 " transform="matrix(20,0,0,20,101,22.236068)"/>
<path style="fill:none;stroke-width:0.1;stroke-linecap:butt;stroke-linejoin:miter;stroke:rgb(0%,0%,0%);stroke-opacity:1;stroke-dasharray:0.1,0.1;stroke-miterlimit:10;" d="M 15 21.999915 L 15 -0.513171 " transform="matrix(20,0,0,20,101,22.236068)"/>
<path style="fill-rule:evenodd;fill:rgb(0%,0%,0%);fill-opacity:1;stroke-width:0.1;stroke-linecap:butt;stroke-linejoin:miter;stroke:rgb(0%,0%,0%);stroke-opacity:1;stroke-miterlimit:10;" d="M 15 -0.888171 L 15.25 -0.388171 L 15 -0.513171 L 14.75 -0.388171 Z M 15 -0.888171 " transform="matrix(20,0,0,20,101,22.236068)"/>
<path style="fill:none;stroke-width:0.1;stroke-linecap:butt;stroke-linejoin:miter;stroke:rgb(0%,0%,0%);stroke-opacity:1;stroke-miterlimit:10;" d="M 1 -1.000085 L 1 12.513197 " transform="matrix(20,0,0,20,101,22.236068)"/>
<path style="fill-rule:evenodd;fill:rgb(0%,0%,0%);fill-opacity:1;stroke-width:0.1;stroke-linecap:butt;stroke-linejoin:miter;stroke:rgb(0%,0%,0%);stroke-opacity:1;stroke-miterlimit:10;" d="M 1 12.888197 L 0.75 12.388197 L 1 12.513197 L 1.25 12.388197 Z M 1 12.888197 " transform="matrix(20,0,0,20,101,22.236068)"/>
<path style="fill:none;stroke-width:0.1;stroke-linecap:butt;stroke-linejoin:miter;stroke:rgb(0%,0%,0%);stroke-opacity:1;stroke-miterlimit:10;" d="M 3 12.999915 L 3 -0.513171 " transform="matrix(20,0,0,20,101,22.236068)"/>
<path style="fill-rule:evenodd;fill:rgb(0%,0%,0%);fill-opacity:1;stroke-width:0.1;stroke-linecap:butt;stroke-linejoin:miter;stroke:rgb(0%,0%,0%);stroke-opacity:1;stroke-miterlimit:10;" d="M 3 -0.888171 L 3.25 -0.388171 L 3 -0.513171 L 2.75 -0.388171 Z M 3 -0.888171 " transform="matrix(20,0,0,20,101,22.236068)"/>
</g>
</svg>
