<?xml version="1.0" ?><!DOCTYPE svg  PUBLIC '-//W3C//DTD SVG 1.1//EN'  'http://www.w3.org/Graphics/SVG/1.1/DTD/svg11.dtd'><svg height="512px" style="shape-rendering:geometricPrecision; text-rendering:geometricPrecision; image-rendering:optimizeQuality; fill-rule:evenodd; clip-rule:evenodd" version="1.1" viewBox="0 0 512 512" width="512px" xml:space="preserve" xmlns="http://www.w3.org/2000/svg" xmlns:xlink="http://www.w3.org/1999/xlink"><defs><style type="text/css">
   <![CDATA[
    .fil0 {fill:#2B2A29}
   ]]>
  </style></defs><g id="Layer_x0020_1"><path class="fil0" d="M169 70c5,-4 12,-7 19,-10 47,-16 103,47 84,130 -3,12 -8,27 -15,42 -29,65 -226,271 -139,269l0 0c1,0 1,0 2,0 44,-3 84,-82 84,-82l0 0c3,-4 5,-9 7,-14 62,-123 64,-130 64,-130 22,268 170,252 195,194 3,-7 5,-14 5,-22 0,-28 -22,-50 -50,-50 -28,0 -50,22 -50,50 0,4 1,9 2,13 -7,-8 -13,-19 -16,-37 -12,-65 -65,-317 -65,-317 0,0 -30,-96 -145,-84 -55,6 -77,41 -76,71 0,1 0,1 0,2 0,28 22,50 50,50 28,0 50,-22 50,-50 0,-9 -2,-17 -6,-25z"/></g></svg>