<?xml version="1.0" ?><!DOCTYPE svg  PUBLIC '-//W3C//DTD SVG 1.1//EN'  'http://www.w3.org/Graphics/SVG/1.1/DTD/svg11.dtd'><svg enable-background="new 0 0 512 512" height="512px" id="Слой_1" version="1.1" viewBox="0 0 512 512" width="512px" xml:space="preserve" xmlns="http://www.w3.org/2000/svg" xmlns:xlink="http://www.w3.org/1999/xlink"><g id="syringe"><g><path d="M512,256c0,141.391-114.609,255.984-256,256C114.609,511.984,0,397.391,0,256S114.609,0,256,0    S512,114.609,512,256z" fill="#9ED368"/><path d="M222.805,509.781C233.672,511.188,244.742,512,256,512c135.422-0.016,246.211-105.172,255.328-238.297    l-139.57-139.563L109.461,396.438L222.805,509.781z" fill="#8BC052"/></g><g><polygon fill="#F4F6F9" points="391.242,153.641 358.352,120.75 341.906,104.281 325.461,120.734 341.906,137.172 309,170.078     341.906,202.984 374.797,170.094 391.242,186.531 407.695,170.094   "/><path d="M276.109,170.078L144.586,301.625l8.156,41.172l-48.461,48.453l16.461,16.453l48.461-48.469l41.133,8.109    l131.57-131.453L276.109,170.078z" fill="#F4F6F9"/><polygon fill="#E5E8EC" points="358.352,252.328 259.664,153.641 276.109,137.203 374.797,235.875   "/><polygon fill="#AB91EA" points="120.742,407.703 169.203,359.234 210.336,367.344 267.852,309.875 202.094,244.125     144.586,301.625 152.742,342.797 104.281,391.25   "/></g></g></svg>