<?xml version="1.0" encoding="UTF-8"?>
<svg xmlns="http://www.w3.org/2000/svg" xmlns:xlink="http://www.w3.org/1999/xlink" width="442pt" height="483pt" viewBox="0 0 442 483" version="1.1">
<g id="surface26926">
<rect x="0" y="0" width="442" height="483" style="fill:rgb(100%,100%,100%);fill-opacity:1;stroke:none;"/>
<path style="fill-rule:evenodd;fill:rgb(11.764706%,56.470591%,100%);fill-opacity:1;stroke-width:0.1;stroke-linecap:butt;stroke-linejoin:miter;stroke:rgb(0%,0%,0%);stroke-opacity:1;stroke-miterlimit:10;" d="M 0.000000000000000888 7.999915 L 17 7.999915 L 17 14.999915 L 0.000000000000000888 14.999915 Z M 0.000000000000000888 7.999915 " transform="matrix(20,0,0,20,101,22.236068)"/>
<path style="fill-rule:evenodd;fill:rgb(11.764706%,56.470591%,100%);fill-opacity:1;stroke-width:0.1;stroke-linecap:butt;stroke-linejoin:miter;stroke:rgb(0%,0%,0%);stroke-opacity:1;stroke-miterlimit:10;" d="M 0.000000000000000888 10.999915 L 17 10.999915 L 17 14.999915 L 0.000000000000000888 14.999915 Z M 0.000000000000000888 10.999915 " transform="matrix(20,0,0,20,101,22.236068)"/>
<path style="fill-rule:evenodd;fill:rgb(100%,100%,100%);fill-opacity:1;stroke-width:0.1;stroke-linecap:butt;stroke-linejoin:miter;stroke:rgb(0%,0%,0%);stroke-opacity:1;stroke-miterlimit:10;" d="M -5 -0.0000846489 L 0.000000000000000888 -0.0000846489 L 0.000000000000000888 22.967298 L -5 22.967298 Z M -5 -0.0000846489 " transform="matrix(20,0,0,20,101,22.236068)"/>
<path style="fill-rule:evenodd;fill:rgb(34.117648%,88.235295%,34.117648%);fill-opacity:1;stroke-width:0.1;stroke-linecap:butt;stroke-linejoin:miter;stroke:rgb(0%,0%,0%);stroke-opacity:1;stroke-miterlimit:10;" d="M 0.000000000000000888 -0.0000846489 L 17 -0.0000846489 L 17 1.999915 L 0.000000000000000888 1.999915 Z M 0.000000000000000888 -0.0000846489 " transform="matrix(20,0,0,20,101,22.236068)"/>
<path style="fill-rule:evenodd;fill:rgb(34.117648%,88.235295%,34.117648%);fill-opacity:1;stroke-width:0.1;stroke-linecap:butt;stroke-linejoin:miter;stroke:rgb(0%,0%,0%);stroke-opacity:1;stroke-miterlimit:10;" d="M 0.000000000000000888 1.999915 L 17 1.999915 L 17 3.999915 L 0.000000000000000888 3.999915 Z M 0.000000000000000888 1.999915 " transform="matrix(20,0,0,20,101,22.236068)"/>
<path style="fill-rule:evenodd;fill:rgb(34.117648%,88.235295%,34.117648%);fill-opacity:1;stroke-width:0.1;stroke-linecap:butt;stroke-linejoin:miter;stroke:rgb(0%,0%,0%);stroke-opacity:1;stroke-miterlimit:10;" d="M 0.000000000000000888 3.999915 L 17 3.999915 L 17 5.999915 L 0.000000000000000888 5.999915 Z M 0.000000000000000888 3.999915 " transform="matrix(20,0,0,20,101,22.236068)"/>
<path style="fill-rule:evenodd;fill:rgb(34.117648%,88.235295%,34.117648%);fill-opacity:1;stroke-width:0.1;stroke-linecap:butt;stroke-linejoin:miter;stroke:rgb(0%,0%,0%);stroke-opacity:1;stroke-miterlimit:10;" d="M 0.000000000000000888 5.999915 L 17 5.999915 L 17 7.999915 L 0.000000000000000888 7.999915 Z M 0.000000000000000888 5.999915 " transform="matrix(20,0,0,20,101,22.236068)"/>
<path style="fill-rule:evenodd;fill:rgb(100%,26.274511%,26.274511%);fill-opacity:1;stroke-width:0.1;stroke-linecap:butt;stroke-linejoin:miter;stroke:rgb(0%,0%,0%);stroke-opacity:1;stroke-miterlimit:10;" d="M 0.000000000000000888 14.999915 L 17 14.999915 L 17 16.999915 L 0.000000000000000888 16.999915 Z M 0.000000000000000888 14.999915 " transform="matrix(20,0,0,20,101,22.236068)"/>
<path style="fill-rule:evenodd;fill:rgb(100%,26.274511%,26.274511%);fill-opacity:1;stroke-width:0.1;stroke-linecap:butt;stroke-linejoin:miter;stroke:rgb(0%,0%,0%);stroke-opacity:1;stroke-miterlimit:10;" d="M 0.000000000000000888 16.999915 L 17 16.999915 L 17 18.999915 L 0.000000000000000888 18.999915 Z M 0.000000000000000888 16.999915 " transform="matrix(20,0,0,20,101,22.236068)"/>
<path style="fill-rule:evenodd;fill:rgb(100%,26.274511%,26.274511%);fill-opacity:1;stroke-width:0.1;stroke-linecap:butt;stroke-linejoin:miter;stroke:rgb(0%,0%,0%);stroke-opacity:1;stroke-miterlimit:10;" d="M 0.000000000000000888 18.999915 L 17 18.999915 L 17 20.999915 L 0.000000000000000888 20.999915 Z M 0.000000000000000888 18.999915 " transform="matrix(20,0,0,20,101,22.236068)"/>
<path style="fill-rule:evenodd;fill:rgb(100%,26.274511%,26.274511%);fill-opacity:1;stroke-width:0.1;stroke-linecap:butt;stroke-linejoin:miter;stroke:rgb(0%,0%,0%);stroke-opacity:1;stroke-miterlimit:10;" d="M 0.000000000000000888 20.999915 L 17 20.999915 L 17 22.999915 L 0.000000000000000888 22.999915 Z M 0.000000000000000888 20.999915 " transform="matrix(20,0,0,20,101,22.236068)"/>
<path style="fill-rule:evenodd;fill:rgb(0%,38.82353%,76.862746%);fill-opacity:1;stroke-width:0.1;stroke-linecap:butt;stroke-linejoin:miter;stroke:rgb(0%,0%,0%);stroke-opacity:1;stroke-miterlimit:10;" d="M 0.000000000000000888 12.999915 L 13 12.999915 L 13 14.999915 L 0.000000000000000888 14.999915 Z M 0.000000000000000888 12.999915 " transform="matrix(20,0,0,20,101,22.236068)"/>
<path style="fill:none;stroke-width:0.1;stroke-linecap:butt;stroke-linejoin:miter;stroke:rgb(0%,0%,0%);stroke-opacity:1;stroke-miterlimit:10;" d="M 1 -1.000085 L 1 21.713197 " transform="matrix(20,0,0,20,101,22.236068)"/>
<path style="fill-rule:evenodd;fill:rgb(0%,0%,0%);fill-opacity:1;stroke-width:0.1;stroke-linecap:butt;stroke-linejoin:miter;stroke:rgb(0%,0%,0%);stroke-opacity:1;stroke-miterlimit:10;" d="M 1 22.088197 L 0.75 21.588197 L 1 21.713197 L 1.25 21.588197 Z M 1 22.088197 " transform="matrix(20,0,0,20,101,22.236068)"/>
<path style="fill:none;stroke-width:0.1;stroke-linecap:butt;stroke-linejoin:miter;stroke:rgb(0%,0%,0%);stroke-opacity:1;stroke-miterlimit:10;" d="M 3 13.999915 L 3 -0.513171 " transform="matrix(20,0,0,20,101,22.236068)"/>
<path style="fill-rule:evenodd;fill:rgb(0%,0%,0%);fill-opacity:1;stroke-width:0.1;stroke-linecap:butt;stroke-linejoin:miter;stroke:rgb(0%,0%,0%);stroke-opacity:1;stroke-miterlimit:10;" d="M 3 -0.888171 L 3.25 -0.388171 L 3 -0.513171 L 2.75 -0.388171 Z M 3 -0.888171 " transform="matrix(20,0,0,20,101,22.236068)"/>
<path style="fill:none;stroke-width:0.1;stroke-linecap:butt;stroke-linejoin:miter;stroke:rgb(0%,0%,0%);stroke-opacity:1;stroke-miterlimit:10;" d="M 16 -0.513171 L 16 22.199915 " transform="matrix(20,0,0,20,101,22.236068)"/>
<path style="fill-rule:evenodd;fill:rgb(0%,0%,0%);fill-opacity:1;stroke-width:0.1;stroke-linecap:butt;stroke-linejoin:miter;stroke:rgb(0%,0%,0%);stroke-opacity:1;stroke-miterlimit:10;" d="M 16 -0.888171 L 16.25 -0.388171 L 16 -0.513171 L 15.75 -0.388171 Z M 16 -0.888171 " transform="matrix(20,0,0,20,101,22.236068)"/>
</g>
</svg>
