<?xml version="1.0" ?><!DOCTYPE svg  PUBLIC '-//W3C//DTD SVG 1.1//EN'  'http://www.w3.org/Graphics/SVG/1.1/DTD/svg11.dtd'><svg enable-background="new 0 0 512 512" id="Layer_1" version="1.1" viewBox="0 0 512 512" xml:space="preserve" xmlns="http://www.w3.org/2000/svg" xmlns:xlink="http://www.w3.org/1999/xlink"><g><circle cx="256" cy="256" fill="#01947A" r="244.5"/><path d="M201.2,408.3c0.8,0.8,1.6,1.5,2.4,2.1C202.8,409.8,202,409.1,201.2,408.3L201.2,408.3z" fill="#FFFFFF"/><path d="M107.7,250.3c14.7-14.7,38.5-14.7,53.2,0l55,55l-58.9,58.9l-55-55c-7.1-7.1-11-16.6-11-26.6   c0-10,4-19.6,11-26.6L107.7,250.3z" fill="#FFFFFF"/><path d="M274.9,364.2l-44.2,44.2c-0.8,0.8-1.6,1.5-2.4,2.1c0.8-0.6,1.6-1.3,2.4-2.1L274.9,364.2z" fill="#FFFFFF"/><path d="M274.9,364.2l-44.2,44.2c-0.8,0.8-1.6,1.5-2.4,2.1c-0.6,0.4-1.1,0.8-1.7,1.1c-6.5,3.8-14.6,3.8-21.2,0   c-0.6-0.4-1.2-0.7-1.7-1.1c-0.8-0.6-1.7-1.3-2.4-2.1l-44.2-44.2l58.9-58.9L274.9,364.2z" fill="#F4F4F4"/><path d="M420.7,165.1c14.7,14.7,14.7,38.5,0,53.2L274.9,364.2L216,305.3l145.8-145.8c7.1-7.1,16.6-11,26.6-11   c10,0,19.6,4,26.6,11L420.7,165.1z" fill="#FFFFFF"/><path d="M216,364.2l-29.5,29.5l-84.4-84.4c-7.1-7.1-11-16.6-11-26.6s4-19.6,11-26.6l2.8-2.8L216,364.2z" fill="#E5E5E5"/><path d="M245.4,393.6l-14.7,14.7c-8.1,8.1-21.3,8.1-29.5,0l-14.7-14.7l29.5-29.5L245.4,393.6z" fill="#D3D3D3"/><path d="M420.7,165.1c14.7,14.7,14.7,38.5,0,53.2L245.4,393.6L216,364.2l201.9-201.9L420.7,165.1z" fill="#E5E5E5"/></g></svg>