<?xml version="1.0" ?><svg height="100" viewBox="0 0 100 100" width="100" xmlns="http://www.w3.org/2000/svg"><path d="M50.147 0c-27.614 0-50 22.386-50 50 0 27.613 22.386 50 50 50s50-22.387 50-50c0-27.615-22.385-50-50-50z" fill="#3DB39E"/><path d="M93.141 24.477c-4.147-6.972-9.938-12.85-16.845-17.096-13.932 13.932-37.795 37.795-38.251 38.25-1.357 1.357-5.701 21.295-4.763 22.233.961.962 20.415-3.943 21.733-5.263l38.126-38.124z" fill="#BF392B"/><path d="M46.521 54.107c-.996-.996-1.124-5.367-2.128-6.37-1.003-1.005-6.344-2.105-6.348-2.106-1.303 1.303-5.356 19.724-4.848 22.022l.295.296c2.282.488 20.257-4.081 21.523-5.348 0 0-1.146-5.389-2.127-6.369-.981-.982-5.369-1.128-6.367-2.125z" fill="#FFCABA"/><path d="M33.171 67.506l.026.146.296.297c2.286.487 20.256-4.081 21.522-5.348 0 0-1.102-5.344-2.105-6.349-16.719 9.511-19.33 11.016-19.739 11.254z" fill="#E5B5A7"/><path d="M33.164 67.435c.305-.523 1.981-3.438 11.229-19.697-1.004-1.005-6.349-2.106-6.349-2.106-1.267 1.266-5.137 18.731-4.88 21.803z" fill="#FFDCD2"/><path d="M36.631 64.017c-.687-.688-1.866-1.202-2.961-1.285-.466 2.772-.675 4.846-.388 5.133.279.28 2.129.062 4.637-.419.061-1.213-.501-2.642-1.288-3.429z" fill="#BF392B"/><path d="M38.045 45.631s5.345 1.102 6.349 2.106c-.015.024 36.883-36.852 36.883-36.852-1.587-1.264-3.246-2.439-4.98-3.506l-38.252 38.252z" fill="#C9574B"/><path d="M89.701 19.431s-36.815 36.835-36.791 36.822c1.004 1.005 2.105 6.349 2.105 6.349l38.125-38.125c-1.043-1.756-2.195-3.438-3.439-5.046z" fill="#AC3327"/></svg>